<?xml version="1.0" standalone="no"?>
<!DOCTYPE svg PUBLIC "-//W3C//DTD SVG 20010904//EN"
 "http://www.w3.org/TR/2001/REC-SVG-20010904/DTD/svg10.dtd">
<svg version="1.0" xmlns="http://www.w3.org/2000/svg"
 width="700.000000pt" height="700.000000pt" viewBox="0 0 700.000000 700.000000"
 preserveAspectRatio="xMidYMid meet">
<metadata>
Created by potrace 1.14, written by Peter Selinger 2001-2017
</metadata>
<g transform="translate(0.000000,700.000000) scale(0.100000,-0.100000)"
fill="#000000" stroke="none">
<path d="M3780 6281 c-14 -4 -43 -17 -65 -29 -25 -13 -484 -466 -1216 -1199
-1102 -1103 -1178 -1182 -1197 -1233 -74 -200 75 -410 283 -401 129 5 67 -51
1223 1104 l1052 1052 215 -215 c118 -118 217 -212 219 -210 3 3 98 97 211 210
l206 204 -333 333 c-373 374 -393 389 -509 391 -35 0 -75 -3 -89 -7z"/>
<path d="M5291 5918 c-52 -9 -114 -45 -158 -91 l-33 -34 204 -204 c113 -112
209 -205 214 -207 5 -1 32 23 60 54 78 87 93 189 42 285 -26 52 -129 153 -182
180 -21 11 -38 18 -38 15 0 -2 -15 -1 -32 3 -18 4 -53 4 -77 -1z"/>
<path d="M4335 5026 l-686 -683 -20 -69 c-11 -38 -22 -76 -24 -84 -2 -8 -13
-49 -25 -90 -55 -189 -89 -325 -82 -331 4 -4 34 1 67 11 68 21 361 104 448
127 l58 16 685 684 686 684 -208 209 c-115 115 -210 210 -211 210 -1 0 -311
-308 -688 -684z"/>
<path d="M2872 4417 l-992 -992 0 -187 0 -187 -239 -3 -239 -3 -25 -29 c-14
-16 -27 -41 -30 -55 -7 -36 16 -86 49 -108 27 -17 94 -18 1586 -19 1550 0
1558 0 1586 -20 61 -46 66 -122 11 -168 -17 -14 -40 -26 -52 -27 -12 0 -647
-2 -1412 -2 -1095 -2 -1395 -5 -1412 -15 -60 -34 -71 -111 -24 -164 l29 -33
1039 -5 c1136 -5 1069 -2 1095 -64 24 -59 1 -118 -55 -140 -25 -11 -227 -13
-960 -12 -511 0 -933 -2 -939 -5 -8 -5 -14 -196 -9 -315 l1 -20 1043 0 1043 0
31 -22 c42 -30 52 -67 54 -198 3 -231 84 -421 246 -574 104 -99 215 -161 356
-200 105 -28 393 -23 516 10 315 84 559 329 653 655 l22 80 4 915 3 915 -531
530 -530 530 -327 -327 -328 -327 -260 -75 c-143 -41 -282 -82 -310 -90 -27
-9 -59 -16 -71 -16 -34 0 -83 30 -99 60 -25 48 -27 35 75 385 105 363 59 288
388 617 158 158 301 302 319 320 l32 33 -172 172 -173 172 -992 -992z m2458
-1160 c36 -18 69 -73 64 -105 -6 -35 -34 -74 -65 -89 -19 -10 -340 -13 -1460
-13 l-1436 0 -34 23 c-65 43 -62 137 5 178 30 18 80 19 1467 18 1098 0 1441
-3 1459 -12z"/>
<path d="M5078 4771 l-206 -208 546 -545 c426 -426 558 -552 598 -572 45 -22
63 -25 135 -23 72 2 91 6 134 31 103 60 157 159 151 273 -7 120 1 110 -594
706 -301 301 -549 547 -552 546 -3 0 -98 -94 -212 -208z"/>
<path d="M623 3040 c-35 -14 -64 -69 -58 -108 7 -45 24 -69 60 -84 36 -15 504
-20 548 -5 37 12 67 57 67 102 0 29 -8 45 -34 71 l-34 34 -263 -1 c-145 0
-274 -4 -286 -9z"/>
<path d="M902 2605 c-73 -31 -81 -137 -13 -182 78 -52 176 -3 173 87 -2 79
-83 127 -160 95z"/>
<path d="M1217 2601 c-63 -32 -76 -109 -28 -163 l29 -33 136 0 c135 0 136 0
163 28 23 22 28 36 28 76 0 41 -5 53 -28 75 -33 30 -22 28 -160 31 -82 2 -115
-2 -140 -14z"/>
<path d="M1448 1718 c-8 -22 1 -201 12 -258 74 -375 364 -666 732 -735 78 -14
228 -16 1313 -18 674 -1 1225 1 1225 6 0 4 -8 7 -17 8 -56 2 -161 34 -251 75
-235 107 -423 328 -492 577 -25 89 -31 127 -35 247 -2 52 -4 98 -4 103 -1 4
-559 7 -1240 7 -982 0 -1240 -3 -1243 -12z"/>
</g>
</svg>
